# xmcd
#
# Track frame offsets:
#	150
#	20152
#	42614
#	60091
#	72309
#	89005
#	106484
#	123329
#	140899
#	160392
#	177645
#	194251
#	211300
#	224611
#	242032
#	258701
#	272471
#	289198
#
# Disc length: 4019
#
# Revision: 1
# Processed by: cddbd v1.5.1PL0 Copyright (c) Steve Scherf et al.
# Submitted via: CDex 1.50Beta7
# Normalized: r0:DSETVAR1,TDELIM( - )
#
DISCID=280fb112
DTITLE=Various Artist - Raindance - Volume 3
DYEAR=1998
DGENRE=New Age
TTITLE0=Kamar-Oun - Awa Awa
TTITLE1=Moneille - Adiemus
TTITLE2=Aintone - Sadeness
TTITLE3=Praise - Theme From Harry's Game
TTITLE4=Galinqua - Amazone
TTITLE5=Hidden Wood - Sweet Lullaby
TTITLE6=Berit Mia - Gio Bl
TTITLE7=Uyuhla - The Sacred Saurian
TTITLE8=Mystique - Voices of the Freedom
TTITLE9=Kainsook - Flight of the Falcon
TTITLE10=Rainclouds - Darknes
TTITLE11=Mette Ingerman - The Woods
TTITLE12=Saphire - Wishful Moments
TTITLE13=Aicirap - The Peacemaker
TTITLE14=The Rain - Nature's Calling
TTITLE15=Illusion - Oxigene
TTITLE16=Royal Huggy - Prince Igor
TTITLE17=Kilimanjaro - Drums of Moisi-Kao
EXTD=YEAR: 1998
EXTT0=
EXTT1=
EXTT2=
EXTT3=
EXTT4=
EXTT5=
EXTT6=
EXTT7=
EXTT8=
EXTT9=
EXTT10=
EXTT11=
EXTT12=
EXTT13=
EXTT14=
EXTT15=
EXTT16=
EXTT17=
PLAYORDER=
